<svg width="14" height="15" viewBox="0 0 14 15" fill="none" xmlns="http://www.w3.org/2000/svg">
<path d="M0.733022 0.500005C0.548281 0.499292 0.370748 0.571487 0.239096 0.700851C0.107443 0.830216 0.032336 1.00627 0.0301538 1.19066L4.86295e-05 4.70942C-0.00103522 4.80119 0.0160083 4.89229 0.0501955 4.97749C0.0843827 5.06269 0.135048 5.14033 0.199301 5.20598C0.263553 5.27164 0.340128 5.32402 0.424663 5.36014C0.509197 5.39625 0.600033 5.41538 0.691977 5.41645C0.784493 5.41753 0.876308 5.4003 0.962112 5.36576C1.04792 5.33121 1.12601 5.28002 1.19188 5.21517C1.25774 5.15031 1.31007 5.07306 1.34585 4.9879C1.38163 4.90273 1.40014 4.81133 1.40032 4.71897L1.4263 1.89768H12.5997V13.0818L9.79373 13.1023C9.60876 13.1041 9.43202 13.1789 9.30211 13.3104C9.17221 13.4418 9.0997 13.6193 9.10044 13.8039C9.10079 13.8957 9.11925 13.9865 9.15477 14.0711C9.19029 14.1558 9.24216 14.2326 9.30743 14.2973C9.3727 14.3619 9.45008 14.4131 9.53517 14.4479C9.62025 14.4826 9.71136 14.5004 9.8033 14.5L13.3026 14.4741C13.4873 14.4733 13.6643 14.3998 13.7949 14.2694C13.9256 14.139 13.9993 13.9623 14 13.778V1.19611C13.9993 1.01078 13.9248 0.833323 13.793 0.702781C13.6612 0.57224 13.4828 0.499298 13.2971 0.500005H0.733022ZM2.13329 6.78956C2.04123 6.7892 1.95 6.80697 1.86483 6.84184C1.77966 6.87672 1.70222 6.92801 1.63694 6.99279C1.57165 7.05758 1.51981 7.13458 1.48437 7.21939C1.44893 7.3042 1.4306 7.39515 1.43042 7.48703C1.43006 7.57927 1.448 7.67065 1.4832 7.75593C1.51839 7.84121 1.57015 7.9187 1.63548 7.98392C1.70082 8.04914 1.77845 8.10081 1.86389 8.13594C1.94933 8.17107 2.04089 8.18896 2.13329 8.1886H5.32765L0.236638 13.2852C0.106204 13.4162 0.0329956 13.5933 0.0329956 13.778C0.0329956 13.9626 0.106204 14.1397 0.236638 14.2707C0.304101 14.3385 0.384782 14.3918 0.473688 14.4272C0.562594 14.4627 0.657836 14.4795 0.753534 14.4768C0.932745 14.4714 1.10307 14.3977 1.22941 14.2707L6.33546 9.16452V12.3775C6.3351 12.4693 6.35284 12.5603 6.3877 12.6452C6.42255 12.7301 6.47383 12.8074 6.53859 12.8725C6.60335 12.9376 6.68033 12.9894 6.76513 13.0249C6.84994 13.0603 6.94091 13.0788 7.03285 13.0791C7.12526 13.0795 7.21682 13.0616 7.30226 13.0264C7.3877 12.9913 7.46532 12.9396 7.53066 12.8744C7.596 12.8092 7.64776 12.7317 7.68296 12.6464C7.71815 12.5612 7.73608 12.4698 7.73572 12.3775V7.48703C7.73553 7.39515 7.71719 7.30421 7.68175 7.2194C7.64631 7.1346 7.59447 7.0576 7.52918 6.99282C7.4639 6.92803 7.38647 6.87674 7.3013 6.84186C7.21614 6.80699 7.12491 6.78921 7.03285 6.78956H2.13329Z" fill="#FF9828"/>
</svg>
